<svg width="40" height="40" viewBox="0 0 40 40" fill="none" xmlns="http://www.w3.org/2000/svg">
<g filter="url(#filter0_i_102_760)">
<circle cx="20" cy="20" r="20" fill="url(#paint0_linear_102_760)"/>
</g>
<g clip-path="url(#clip0_102_760)">
<path fill-rule="evenodd" clip-rule="evenodd" d="M25.4742 14.5052C24.1586 13.188 22.4089 12.4623 20.5449 12.4615C16.704 12.4615 13.5781 15.5874 13.5765 19.4294C13.576 20.6575 13.8968 21.8564 14.5067 22.9132L13.5181 26.5241L17.2121 25.555C18.23 26.1103 19.3759 26.4029 20.5421 26.4032H20.545C24.3855 26.4032 27.5118 23.2771 27.5133 19.435C27.514 17.5729 26.7899 15.8223 25.4742 14.5052ZM20.5449 25.2264H20.5425C19.5033 25.226 18.4841 24.9467 17.5947 24.4191L17.3833 24.2935L15.1912 24.8686L15.7763 22.7313L15.6385 22.5122C15.0587 21.59 14.7526 20.5241 14.7531 19.4298C14.7543 16.2365 17.3526 13.6385 20.5473 13.6385C22.0943 13.639 23.5485 14.2422 24.642 15.337C25.7355 16.4317 26.3373 17.8869 26.3368 19.4345C26.3354 22.6281 23.7373 25.2264 20.5449 25.2264ZM23.7219 20.8886C23.5478 20.8014 22.6917 20.3803 22.5321 20.3221C22.3726 20.264 22.2564 20.2351 22.1404 20.4093C22.0243 20.5835 21.6907 20.9758 21.5891 21.0919C21.4874 21.2081 21.386 21.2227 21.2118 21.1355C21.0377 21.0484 20.4767 20.8645 19.8116 20.2713C19.294 19.8096 18.9446 19.2394 18.843 19.0652C18.7415 18.8908 18.8421 18.8056 18.9194 18.7099C19.1079 18.4758 19.2966 18.2304 19.3546 18.1143C19.4127 17.9981 19.3836 17.8964 19.34 17.8092C19.2966 17.7221 18.9484 16.8651 18.8033 16.5164C18.6619 16.177 18.5185 16.2228 18.4115 16.2175C18.3101 16.2124 18.194 16.2114 18.0778 16.2114C17.9618 16.2114 17.7731 16.2549 17.6135 16.4293C17.4539 16.6037 17.0042 17.0248 17.0042 17.8818C17.0042 18.7389 17.6281 19.5668 17.7151 19.683C17.8021 19.7992 18.9429 21.5579 20.6895 22.312C21.1049 22.4916 21.4292 22.5986 21.6821 22.6788C22.0992 22.8114 22.4787 22.7927 22.7788 22.7478C23.1133 22.6978 23.8088 22.3266 23.954 21.9199C24.0991 21.5132 24.0991 21.1646 24.0555 21.0919C24.0121 21.0193 23.8959 20.9758 23.7219 20.8886Z" fill="white"/>
</g>
<defs>
<filter id="filter0_i_102_760" x="0" y="0" width="40" height="40" filterUnits="userSpaceOnUse" color-interpolation-filters="sRGB">
<feFlood flood-opacity="0" result="BackgroundImageFix"/>
<feBlend mode="normal" in="SourceGraphic" in2="BackgroundImageFix" result="shape"/>
<feColorMatrix in="SourceAlpha" type="matrix" values="0 0 0 0 0 0 0 0 0 0 0 0 0 0 0 0 0 0 127 0" result="hardAlpha"/>
<feOffset/>
<feGaussianBlur stdDeviation="10.5"/>
<feComposite in2="hardAlpha" operator="arithmetic" k2="-1" k3="1"/>
<feColorMatrix type="matrix" values="0 0 0 0 1 0 0 0 0 1 0 0 0 0 1 0 0 0 0.23 0"/>
<feBlend mode="normal" in2="shape" result="effect1_innerShadow_102_760"/>
</filter>
<linearGradient id="paint0_linear_102_760" x1="20" y1="0" x2="20" y2="40" gradientUnits="userSpaceOnUse">
<stop stop-color="#1DBE5D"/>
<stop offset="1" stop-color="#1B913A"/>
</linearGradient>
<clipPath id="clip0_102_760">
<rect width="15" height="15" fill="white" transform="translate(13 12)"/>
</clipPath>
</defs>
</svg>
